<?xml version="1.0" standalone="no"?>
<!DOCTYPE svg PUBLIC "-//W3C//DTD SVG 20010904//EN"
 "http://www.w3.org/TR/2001/REC-SVG-20010904/DTD/svg10.dtd">
<svg version="1.0" xmlns="http://www.w3.org/2000/svg"
 width="200.000000pt" height="200.000000pt" viewBox="0 0 200.000000 200.000000"
 preserveAspectRatio="xMidYMid meet">
<metadata>
Created by potrace 1.14, written by Peter Selinger 2001-2017
</metadata>
<g transform="translate(0.000000,200.000000) scale(0.100000,-0.100000)"
fill="#000000" stroke="none">
<path d="M1376 1955 c-8 -8 -22 -15 -30 -15 -9 0 -16 -5 -16 -11 0 -5 -4 -8
-9 -5 -5 3 -14 -1 -21 -9 -7 -8 -19 -15 -26 -15 -8 0 -14 -5 -14 -10 0 -5 -3
-9 -7 -8 -11 3 -117 -53 -121 -63 -2 -5 -12 -9 -21 -9 -10 0 -29 -8 -42 -19
-13 -10 -34 -21 -46 -25 -13 -4 -23 -12 -23 -17 0 -5 -3 -8 -7 -7 -12 4 -73
-26 -73 -34 0 -12 -30 -10 -31 2 -2 13 -6 29 -9 33 -2 2 -4 14 -15 77 -13 76
-11 76 -93 -8 -168 -174 -240 -254 -232 -260 3 -2 -3 -8 -13 -13 -15 -9 -75
-82 -117 -144 -51 -75 -71 -107 -95 -156 -15 -30 -32 -62 -37 -73 -10 -20 -11
-24 -33 -131 -8 -38 -19 -84 -24 -102 -30 -100 36 -346 130 -484 92 -135 217
-232 369 -285 l65 -23 3 -70 3 -71 179 1 180 0 0 72 0 73 45 13 c180 53 357
212 441 395 14 30 27 65 29 77 3 12 9 36 14 53 6 17 13 46 16 64 3 17 8 47 11
65 3 17 0 73 -6 122 -12 87 -11 94 18 205 48 183 47 165 2 179 -33 10 -39 16
-38 36 1 14 5 25 8 25 3 0 12 21 19 48 8 26 17 52 22 57 4 6 9 19 11 30 1 11
6 22 10 25 4 3 9 16 10 29 3 20 -2 24 -27 27 -16 1 -50 5 -75 8 -25 3 -67 7
-95 10 -135 12 -181 19 -187 29 -4 6 -5 14 -3 17 3 5 11 88 21 224 3 38 7 73
10 78 9 14 -14 9 -30 -7z"/>
</g>
</svg>
